<?xml version="1.0" standalone="no"?>
<!DOCTYPE svg PUBLIC "-//W3C//DTD SVG 20010904//EN"
 "http://www.w3.org/TR/2001/REC-SVG-20010904/DTD/svg10.dtd">
<svg version="1.0" xmlns="http://www.w3.org/2000/svg"
 width="200.000000pt" height="200.000000pt" viewBox="0 0 200.000000 200.000000"
 preserveAspectRatio="xMidYMid meet">
<metadata>
Created by potrace 1.14, written by Peter Selinger 2001-2017
</metadata>
<g transform="translate(0.000000,200.000000) scale(0.100000,-0.100000)"
fill="#000000" stroke="none">
<path d="M1526 1371 c-4 -6 68 -118 166 -258 95 -135 176 -251 180 -257 5 -7
10 -7 17 -1 6 6 -29 65 -100 165 -61 85 -135 191 -165 235 -80 117 -90 129
-98 116z"/>
<path d="M614 1341 c-3 -3 -4 -119 -4 -258 1 -211 -1 -256 -13 -268 -31 -30
-32 -131 -3 -177 16 -26 53 -22 72 7 20 30 27 118 12 150 -6 12 -19 27 -31 32
-13 6 31 9 127 9 122 0 143 -2 125 -12 -28 -15 -37 -37 -38 -92 -1 -61 22
-112 51 -112 56 0 85 145 39 194 l-21 23 50 -1 c49 0 49 0 30 -18 -37 -35 -26
-67 44 -126 22 -19 25 -26 16 -38 -17 -20 -37 -18 -50 6 -11 20 -30 28 -30 12
0 -37 68 -63 94 -36 28 28 21 45 -42 96 -25 20 -29 60 -8 77 20 17 46 3 46
-24 0 -29 16 -41 24 -19 10 25 7 32 -16 54 -13 12 -18 21 -13 20 42 -9 41 -12
41 250 0 219 -2 250 -15 251 -57 4 -484 3 -487 0z m40 -547 c14 -36 6 -122
-13 -145 l-19 -24 -11 28 c-15 38 -14 130 1 145 17 17 35 15 42 -4z m287 -11
c14 -35 4 -122 -15 -141 -12 -12 -15 -12 -25 6 -26 49 -16 162 15 162 8 0 19
-12 25 -27z"/>
<path d="M1335 1340 c-148 -32 -241 -187 -195 -325 49 -150 211 -221 353 -155
147 69 189 261 85 392 -50 63 -164 105 -243 88z"/>
<path d="M315 1248 c-45 -88 -147 -283 -186 -355 -15 -29 -25 -54 -21 -56 4
-2 87 -3 185 -2 97 0 177 -1 177 -3 0 -2 -7 -10 -15 -18 -24 -25 -18 -60 18
-93 17 -17 35 -31 40 -31 4 0 7 -11 7 -25 0 -32 -39 -36 -47 -5 -3 11 -11 20
-18 20 -13 0 -10 -36 4 -45 21 -13 62 -12 76 1 24 24 18 43 -25 81 -42 38 -51
71 -25 93 19 15 45 -3 45 -31 0 -25 17 -33 25 -11 6 22 -3 52 -16 52 -5 0 -9
4 -9 9 0 5 14 7 30 6 17 -1 33 1 36 6 3 5 -32 80 -77 167 -82 157 -160 304
-164 310 -2 2 -19 -30 -40 -70z"/>
<path d="M1492 828 c-25 -12 -37 -46 -28 -75 4 -10 22 -29 41 -43 40 -29 48
-70 14 -70 -12 0 -23 8 -26 20 -3 11 -12 20 -19 20 -18 0 -18 -11 0 -35 16
-22 74 -25 87 -4 16 25 10 40 -31 76 -42 38 -51 71 -25 93 19 15 45 -3 45 -31
0 -26 17 -33 25 -10 6 21 -10 61 -25 61 -4 0 -14 2 -22 4 -7 3 -23 0 -36 -6z"/>
<path d="M733 822 c-7 -4 -15 -39 -18 -77 -3 -39 -8 -80 -10 -92 -2 -15 1 -23
11 -23 9 0 14 12 15 38 1 20 4 48 8 62 6 20 9 14 15 -32 9 -70 31 -78 42 -15
4 23 8 45 8 49 2 19 13 15 13 -4 1 -131 17 -129 18 2 1 77 -1 89 -16 93 -24 6
-29 0 -30 -42 -1 -20 -5 -47 -9 -61 -7 -23 -8 -22 -9 11 -1 47 -12 99 -20 99
-3 0 -11 -4 -18 -8z"/>
<path d="M1205 820 c-2 -3 -7 -44 -10 -90 -4 -47 -9 -88 -12 -92 -2 -5 3 -8
11 -8 10 0 16 9 17 23 1 34 9 90 13 95 3 2 7 -21 11 -52 9 -66 31 -76 40 -18
11 63 19 69 23 17 6 -89 18 -68 19 33 1 90 -1 98 -18 98 -12 0 -21 -9 -24 -21
-2 -11 -7 -38 -11 -60 -8 -42 -9 -39 -19 36 -4 31 -10 46 -21 46 -8 0 -17 -3
-19 -7z"/>
<path d="M1360 753 c-6 -38 -15 -80 -20 -95 -6 -19 -5 -28 6 -32 9 -3 14 1 14
14 0 29 55 28 63 0 5 -21 27 -28 27 -9 0 6 -9 51 -21 100 -17 71 -24 89 -39
89 -14 0 -20 -14 -30 -67z m45 -13 c4 -24 9 -48 11 -52 3 -5 -6 -8 -20 -8 -14
0 -26 2 -26 5 0 13 22 106 25 103 2 -2 6 -23 10 -48z"/>
</g>
</svg>
